<svg width="354" height="72" id="wieni-logo" class="jumbo__logo__svg" viewBox="0 0 354 72" fill="#fff" xmlns="http://www.w3.org/2000/svg"><path fill-rule="evenodd" clip-rule="evenodd" d="M107.596 70.504v-7.246H90.902V17.876h-23.4v7.246h15.659v38.136H66.476v7.246h41.12zM82.369 9.238h9.334V0h-9.334v9.238zM7.646 17.876H0l11.222 52.628h7.646L29.193 37.24h.2L39.72 70.504h7.663l11.222-52.628h-7.542l-8.246 40.885h-.192L33.055 27.88h-7.498l-9.569 30.88h-.2L7.646 17.877zm103.62 26.314c0-16.484 10.439-27.836 25.818-27.836 15.102 0 25.331 11.117 25.331 27.836v2.88h-43.007c.496 10.525 7.551 17.58 17.676 17.58 7.351 0 13.414-3.576 17.581-11.022l6.559 4.167C155.456 67.233 147.306 72 137.084 72c-15.301 0-25.818-11.221-25.818-27.81zm42.903-3.775c-.792-10.126-7.551-16.685-17.085-16.685-9.925 0-16.98 6.96-17.475 16.685h34.56zm25.896-22.539h-7.724l-.026 52.628h7.75V40.319c0-10.134 6.777-16.684 16.998-16.702 9.429 0 14.692 6.272 14.692 17.398v29.489h7.751V38.927c0-13.9-8.247-22.538-21.852-22.538-6.872 0-13.326 2.679-17.397 7.341h-.192v-5.854zm90.92 45.382v7.246h-41.119v-7.246h16.693V25.122h-15.658v-7.246h23.435v45.382h16.649zm-15.893-54.02h-9.333V0h9.333v9.238zm25.74 54.02h72.679v7.246h-72.679v-7.246z"></path></svg>
