<svg width="270px" height="111px" viewBox="0 0 270 111" version="1.1" xmlns="http://www.w3.org/2000/svg" xmlns:xlink="http://www.w3.org/1999/xlink">
    <title>wieni logo</title>
    <defs></defs>
    <g id="Design" stroke="none" stroke-width="1" fill="none" fill-rule="evenodd">
        <g id="Artboard" transform="translate(-431.000000, -303.000000)">
            <g id="Group-2" transform="translate(360.000000, 303.000000)">
                <g id="Group" transform="translate(71.000000, 0.000000)">
                    <g id="wieni-logo">
                        <rect id="Rectangle-9" fill="#FFFFFF" x="27.9" y="20.7" width="211.5" height="71.1"></rect>
                        <path d="M268.013083,13.0253475 C268.013083,13.0253475 270,26.4922322 270,55.1921504 C270,83.8920687 268.013083,97.3589534 268.013083,97.3589534 C267.130008,102.6574 262.273099,107.514309 256.974652,108.397383 C256.974652,108.397383 243.507768,110.384301 214.80785,110.384301 L55.1921504,110.384301 C26.4922322,110.384301 13.0253475,108.397383 13.0253475,108.397383 C7.72690106,107.514309 2.86999182,102.6574 1.98691742,97.3589534 C1.98691742,97.3589534 0,83.8920687 0,55.1921504 C0,26.4922322 1.98691742,13.0253475 1.98691742,13.0253475 C2.86999182,7.72690106 7.72690106,2.86999182 13.0253475,1.98691742 C13.0253475,1.98691742 26.4922322,0 55.1921504,0 L214.80785,0 C243.507768,0 256.974652,1.98691742 256.974652,1.98691742 C262.273099,2.86999182 267.130008,7.72690106 268.013083,13.0253475 Z M107.514309,42.3875715 L108.176615,33.5568275 L108.176615,33.3360589 C108.176615,32.4529845 107.514309,32.0114473 106.852003,32.0114473 L101.11202,32.0114473 C100.449714,32.0114473 99.787408,32.4529845 99.787408,33.1152903 L99.1251022,42.1668029 L92.2812756,66.8928863 L84.5543745,40.8421913 C84.5543745,40.4006541 83.8920687,39.9591169 83.4505315,39.9591169 L80.3597711,39.9591169 L77.2690106,39.9591169 C76.8274734,39.9591169 76.3859362,40.4006541 76.1651676,40.8421913 L68.6590352,66.8928863 L62.0359771,42.3875715 L61.3736713,33.3360589 C61.1529027,32.6737531 60.7113655,32.2322159 60.0490597,32.2322159 L54.309076,32.2322159 C53.4260016,32.2322159 52.9844644,32.8945217 52.9844644,33.5568275 L52.9844644,33.7775961 L54.0883074,42.3875715 L64.4644317,77.2690106 C64.4644317,77.7105478 65.1267375,78.152085 65.5682747,78.152085 L72.4121014,78.152085 C72.8536386,78.152085 73.2951758,77.7105478 73.5159444,77.2690106 L80.8013083,50.7767784 L88.0866721,77.2690106 C88.0866721,77.7105478 88.5282093,78.152085 89.1905151,78.152085 L96.0343418,78.152085 C96.475879,78.152085 96.9174162,77.7105478 97.1381848,77.2690106 L107.514309,42.3875715 Z M123.18888,76.8274734 L123.18888,33.5568275 C123.18888,32.6737531 122.526574,32.2322159 121.864268,32.2322159 L115.682747,32.2322159 C114.799673,32.2322159 114.358136,32.8945217 114.358136,33.5568275 L114.358136,76.8274734 C114.358136,77.7105478 115.020442,78.152085 115.682747,78.152085 L121.864268,78.152085 C122.747343,78.152085 123.18888,77.4897792 123.18888,76.8274734 Z M158.511856,38.6345053 L158.511856,38.6345053 L158.511856,33.5568275 C158.511856,32.6737531 157.84955,32.2322159 157.187244,32.2322159 L131.578087,32.2322159 C130.695012,32.2322159 130.253475,32.8945217 130.253475,33.5568275 L130.253475,76.8274734 C130.253475,77.7105478 130.915781,78.152085 131.578087,78.152085 L157.187244,78.152085 C158.070319,78.152085 158.511856,77.4897792 158.511856,76.8274734 L158.511856,71.7497956 C158.511856,70.8667212 157.84955,70.425184 157.187244,70.425184 L139.084219,70.425184 L139.084219,58.7244481 L155.641864,58.7244481 C156.524939,58.7244481 156.966476,58.0621423 156.966476,57.3998365 L156.966476,52.3221586 C156.966476,51.4390842 156.30417,50.997547 155.641864,50.997547 L139.084219,50.997547 L139.084219,39.9591169 L157.187244,39.9591169 C158.070319,39.9591169 158.511856,39.2968111 158.511856,38.6345053 Z M201.120196,76.8274734 L201.340965,76.8274734 L201.340965,33.5568275 C201.340965,32.6737531 200.678659,32.2322159 200.016353,32.2322159 L194.055601,32.2322159 C193.172527,32.2322159 192.730989,32.8945217 192.730989,33.5568275 L192.730989,62.9190515 L172.420278,33.1152903 C171.978741,32.6737531 171.757972,32.2322159 171.095666,32.2322159 L165.134914,32.2322159 C164.25184,32.2322159 163.810303,32.8945217 163.810303,33.5568275 L163.810303,76.8274734 C163.810303,77.7105478 164.472608,78.152085 165.134914,78.152085 L170.874898,78.152085 C171.757972,78.152085 172.199509,77.4897792 172.199509,76.8274734 L172.199509,47.4652494 L192.510221,77.2690106 C192.951758,77.7105478 193.172527,78.152085 193.834832,78.152085 L199.795585,78.152085 C200.678659,78.152085 201.120196,77.4897792 201.120196,76.8274734 Z M217.015536,76.8274734 L217.015536,33.5568275 C217.015536,32.6737531 216.35323,32.2322159 215.690924,32.2322159 L209.509403,32.2322159 C208.626329,32.2322159 208.184791,32.8945217 208.184791,33.5568275 L208.184791,76.8274734 C208.184791,77.7105478 208.847097,78.152085 209.509403,78.152085 L215.690924,78.152085 C216.573998,78.152085 217.015536,77.4897792 217.015536,76.8274734 Z" id="Path" fill="#F33040"></path>
                    </g>
                </g>
            </g>
        </g>
    </g>
</svg>
