  <?xml version='1.0' encoding='iso-8859-1'?>
<!DOCTYPE svg PUBLIC '-//W3C//DTD SVG 1.1//EN' 'http://www.w3.org/Graphics/SVG/1.1/DTD/svg11.dtd'>
<svg version="1.1" xmlns="http://www.w3.org/2000/svg" viewBox="0 0 512 512" xmlns:xlink="http://www.w3.org/1999/xlink" enable-background="new 0 0 512 512">
  <g>
    <path d="M96,303.998H64v32h0.318c0.005,7.666,2.444,15.252,7.729,21.219c41.469,46.828,110.234,74.781,183.953,74.781   s142.484-27.953,183.953-74.781c5.284-5.967,7.724-13.553,7.729-21.219H448v-32h-32H96z"/>
    <path d="m510.328,165.795c-3.359-9.984-11.414-17.672-21.539-20.562l-224-64c-5.734-1.641-11.844-1.641-17.578,0l-224,64c-10.125,2.891-18.18,10.578-21.539,20.562-3.359,9.984-1.594,20.977 4.727,29.406l48,64c6.047,8.055 15.531,12.797 25.601,12.797h352c10.07,0 19.555-4.742 25.602-12.797l48-64c6.32-8.429 8.085-19.422 4.726-29.406zm-222.328,26.203c0,17.673-14.327,32-32,32s-32-14.327-32-32v-32h64v32z"/>
  </g>
</svg>
