<?xml version="1.0" encoding="iso-8859-1"?>
<!-- Generator: Adobe Illustrator 18.0.0, SVG Export Plug-In . SVG Version: 6.00 Build 0)  -->
<!DOCTYPE svg PUBLIC "-//W3C//DTD SVG 1.1//EN" "http://www.w3.org/Graphics/SVG/1.1/DTD/svg11.dtd">
<svg version="1.1" id="Capa_1" xmlns="http://www.w3.org/2000/svg" xmlns:xlink="http://www.w3.org/1999/xlink" x="0px" y="0px"
	 viewBox="0 0 492.366 492.366" style="enable-background:new 0 0 492.366 492.366;" xml:space="preserve">
<path d="M367.812,103.005h83.016c5.517,0,9.992-4.475,9.992-9.987V9.986c0-5.513-4.475-9.986-9.992-9.986h-83.016
	c-5.523,0-9.994,4.474-9.994,9.986v25.035H244.512c-9.109,0-16.482,7.379-16.482,16.48v178.2h-58.39v-39.174
	c0-7.395-5.988-13.39-13.391-13.39H44.939c-7.406,0-13.394,5.995-13.394,13.39v111.319c0,7.395,5.987,13.39,13.394,13.39H156.25
	c7.402,0,13.391-5.995,13.391-13.39v-39.183h58.39v178.2c0,9.1,7.372,16.48,16.482,16.48h113.307v25.035
	c0,5.512,4.471,9.987,9.994,9.987h83.016c5.517,0,9.992-4.476,9.992-9.987v-83.032c0-5.512-4.475-9.987-9.992-9.987h-83.016
	c-5.523,0-9.994,4.476-9.994,9.987v25.036h-96.826V262.664h96.826v25.036c0,5.512,4.471,9.985,9.994,9.985h83.016
	c5.517,0,9.992-4.473,9.992-9.985v-83.032c0-5.512-4.475-9.987-9.992-9.987h-83.016c-5.523,0-9.994,4.475-9.994,9.987v25.035
	h-96.826V67.984h96.826v25.034C357.818,98.53,362.289,103.005,367.812,103.005z"/>
<g>
</g>
<g>
</g>
<g>
</g>
<g>
</g>
<g>
</g>
<g>
</g>
<g>
</g>
<g>
</g>
<g>
</g>
<g>
</g>
<g>
</g>
<g>
</g>
<g>
</g>
<g>
</g>
<g>
</g>
</svg>
